<?xml version="1.0" standalone="no"?><!DOCTYPE svg PUBLIC "-//W3C//DTD SVG 1.1//EN" "http://www.w3.org/Graphics/SVG/1.1/DTD/svg11.dtd"><svg t="1647598175055" class="icon" viewBox="0 0 1024 1024" version="1.1" xmlns="http://www.w3.org/2000/svg" p-id="9910" xmlns:xlink="http://www.w3.org/1999/xlink" width="200" height="200"><defs><style type="text/css"></style></defs><path d="M0 0h1024v1024H0z" fill="#bd34fe" opacity=".01" p-id="9911"></path><path d="M544.392533 149.162667a102.4 102.4 0 0 0-64.785066 0L210.3296 238.933333 512 339.490133 813.6704 238.933333l-269.312-89.770666zM887.466667 286.276267l-341.333334 113.800533v474.180267l271.325867-90.453334A102.4 102.4 0 0 0 887.466667 686.660267V286.276267zM477.866667 874.257067V400.042667L136.533333 286.276267v400.384a102.4 102.4 0 0 0 70.007467 97.143466L477.866667 874.257067z m-19.831467-789.845334a170.666667 170.666667 0 0 1 107.9296 0L932.386133 206.506667A34.133333 34.133333 0 0 1 955.733333 238.933333v447.726934a170.666667 170.666667 0 0 1-116.701866 161.8944l-316.245334 105.437866a34.133333 34.133333 0 0 1-21.572266 0L184.968533 848.554667A170.666667 170.666667 0 0 1 68.266667 686.660267V238.933333a34.133333 34.133333 0 0 1 23.3472-32.392533l366.421333-122.129067z" fill="#bd34fe" p-id="9912"></path></svg>